<svg width="40" height="40" viewBox="0 0 40 40" fill="none" xmlns="http://www.w3.org/2000/svg">
<rect width="40" height="40" fill="white"/>
<path fill-rule="evenodd" clip-rule="evenodd" d="M18.6097 10.601C19.0635 10.5345 19.5277 10.5 20 10.5C22.1621 10.5 24.1555 11.2223 25.7521 12.4387C24.5362 13.6195 23.1593 14.5398 21.5634 15.2482C20.7168 13.7376 19.7498 12.2359 18.6097 10.601ZM15.6207 11.5674C13.363 12.7422 11.6365 14.7972 10.8959 17.2775C13.9092 17.1399 16.471 16.8225 18.6782 16.2441C17.828 14.7752 16.8336 13.2721 15.6207 11.5674ZM10.5045 20.2966C10.5671 22.3361 11.2725 24.2138 12.4249 25.7339C14.9192 22.5295 17.5171 20.5411 20.3608 19.5206C20.3216 19.4333 20.2822 19.3464 20.2425 19.2598C20.1968 19.1602 20.1507 19.0608 20.1041 18.9618C17.3086 19.7772 14.1271 20.1576 10.5045 20.2966ZM14.6047 27.8203C16.1372 28.8796 17.9961 29.5 20 29.5C21.1966 29.5 22.3416 29.2788 23.3962 28.875C22.7526 26.2852 22.1413 24.172 21.4764 22.3084C21.4487 22.3179 21.4211 22.3276 21.3936 22.3373C19.1492 23.1379 16.9179 24.778 14.6047 27.8203ZM26.0906 27.291C27.6568 25.9813 28.7947 24.1762 29.2633 22.1166C27.5079 21.7452 25.8873 21.6379 24.4549 21.7355C25.0271 23.3894 25.5556 25.2033 26.0906 27.291ZM29.4575 19.0955C29.3011 17.4396 28.7197 15.9075 27.8235 14.6093C26.3672 16.0203 24.7428 17.1014 22.9301 17.9238L22.9695 18.0094C23.0938 18.2804 23.2152 18.5537 23.334 18.83C25.1941 18.5993 27.2664 18.674 29.4575 19.0955ZM20 7.5C13.0964 7.5 7.5 13.0964 7.5 20C7.5 26.9036 13.0964 32.5 20 32.5C26.9036 32.5 32.5 26.9036 32.5 20C32.5 13.0964 26.9036 7.5 20 7.5Z" fill="#5E3AEE"/>
</svg>
