<svg width="40" height="40" viewBox="0 0 40 40" fill="none" xmlns="http://www.w3.org/2000/svg">
<rect width="40" height="40" fill="white"/>
<path fill-rule="evenodd" clip-rule="evenodd" d="M15 11.5C13.067 11.5 11.5 13.067 11.5 15V25C11.5 26.933 13.067 28.5 15 28.5H25C26.933 28.5 28.5 26.933 28.5 25V15C28.5 13.067 26.933 11.5 25 11.5H15ZM8.5 15C8.5 11.4101 11.4101 8.5 15 8.5H25C28.5899 8.5 31.5 11.4101 31.5 15V25C31.5 28.5899 28.5899 31.5 25 31.5H15C11.4101 31.5 8.5 28.5899 8.5 25V15ZM20.41 17.4838C19.8898 17.4066 19.3586 17.4955 18.8919 17.7377C18.4251 17.9799 18.0466 18.3631 17.8102 18.8328C17.5738 19.3025 17.4915 19.8347 17.575 20.3539C17.6586 20.8731 17.9037 21.3527 18.2755 21.7245C18.6473 22.0963 19.1269 22.3414 19.6461 22.425C20.1653 22.5085 20.6976 22.4262 21.1673 22.1898C21.637 21.9534 22.0202 21.5749 22.2623 21.1082C22.5045 20.6414 22.5934 20.1102 22.5162 19.59C22.4376 19.0594 22.1903 18.5682 21.811 18.189C21.4318 17.8097 20.9406 17.5625 20.41 17.4838ZM17.5101 15.0748C18.537 14.542 19.7057 14.3465 20.85 14.5162C22.0173 14.6893 23.098 15.2332 23.9324 16.0676C24.7668 16.9021 25.3107 17.9827 25.4838 19.15C25.6535 20.2943 25.458 21.463 24.9252 22.4899C24.3924 23.5167 23.5494 24.3494 22.516 24.8695C21.4827 25.3896 20.3117 25.5707 19.1695 25.3869C18.0273 25.2031 16.9722 24.6638 16.1542 23.8458C15.3362 23.0278 14.7969 21.9727 14.6131 20.8305C14.4293 19.6884 14.6104 18.5173 15.1305 17.484C15.6506 16.4506 16.4833 15.6076 17.5101 15.0748ZM25.5 13C24.6716 13 24 13.6716 24 14.5C24 15.3284 24.6716 16 25.5 16H25.51C26.3384 16 27.01 15.3284 27.01 14.5C27.01 13.6716 26.3384 13 25.51 13H25.5Z" fill="#5E3AEE"/>
</svg>
