<svg width="40" height="40" viewBox="0 0 40 40" fill="none" xmlns="http://www.w3.org/2000/svg">
<rect width="40" height="40" fill="white"/>
<path fill-rule="evenodd" clip-rule="evenodd" d="M22.0852 10.8663C23.1517 10.4593 24.3176 10.3896 25.425 10.6667C26.1852 10.8569 26.8926 11.2041 27.5039 11.6818C28.0785 11.444 28.6258 11.1429 29.1354 10.7834C29.6463 10.423 30.3272 10.4173 30.8441 10.7692C31.361 11.121 31.6054 11.7566 31.4574 12.3641C31.1429 13.6554 30.5315 14.8517 29.6761 15.8599C29.6796 15.9382 29.6816 16.0166 29.6818 16.0951L29.6818 16.1001C29.6818 21.8522 26.9015 26.1274 22.8639 28.2764C18.8627 30.4061 13.7772 30.369 9.27154 27.8658C8.66432 27.5285 8.36815 26.8184 8.55573 26.1495C8.7433 25.4807 9.36554 25.0282 10.0596 25.0558C11.1357 25.0986 12.2037 24.9495 13.2157 24.6221C12.2486 23.8823 11.4989 23.0495 10.9345 22.1583C9.95531 20.6123 9.59013 18.9805 9.52428 17.5318C9.45872 16.0896 9.68762 14.7982 9.92562 13.8779C10.0455 13.4143 10.1702 13.0353 10.2673 12.7669C10.3159 12.6324 10.3578 12.525 10.3891 12.4478C10.4047 12.4092 10.4178 12.378 10.4276 12.3548L10.4401 12.3259L10.4444 12.3159L10.4461 12.3121L10.4468 12.3105C10.4472 12.3097 10.4475 12.309 11.8182 12.9182L10.4475 12.309C10.6669 11.8152 11.1351 11.4776 11.6729 11.4253C12.2107 11.3729 12.7352 11.6139 13.0457 12.0562C13.822 13.1616 14.8597 14.0579 16.0662 14.6652C16.8449 15.0571 17.6784 15.3208 18.5346 15.4492C18.6354 14.5543 18.952 13.6935 19.4617 12.9428C20.1028 11.9982 21.0186 11.2734 22.0852 10.8663ZM12.5803 15.9423C12.5251 16.3959 12.4981 16.8869 12.5212 17.3956C12.569 18.4468 12.8288 19.5424 13.4689 20.5532C14.103 21.5544 15.1672 22.5632 16.9728 23.3657C17.4706 23.5869 17.8092 24.0605 17.8577 24.603C17.9061 25.1455 17.6567 25.6716 17.2061 25.9775C16.7626 26.2785 16.3016 26.5484 15.8263 26.7862C17.8486 26.9245 19.7943 26.5117 21.4543 25.6282C24.4615 24.0276 26.6809 20.8037 26.6818 16.1029C26.6812 15.9432 26.6657 15.784 26.6358 15.6271C26.5842 15.3572 26.6084 15.0829 26.6996 14.8323C26.439 14.7512 26.2002 14.5989 26.0136 14.3844C25.6678 13.9867 25.2081 13.7049 24.6968 13.5769C24.1856 13.449 23.6473 13.4812 23.155 13.6691C22.6626 13.8571 22.2398 14.1917 21.9438 14.6277C21.6478 15.0638 21.4928 15.5802 21.4999 16.1072L21.5 16.1273V17.0364C21.5 17.8497 20.8519 18.5148 20.0389 18.5359C18.194 18.5837 16.3659 18.1746 14.7174 17.3449C13.9509 16.959 13.2343 16.4879 12.5803 15.9423Z" fill="#5E3AEE"/>
</svg>
